<?xml version="1.0" encoding="utf-8"?>
<!-- Generator: Adobe Illustrator 25.4.1, SVG Export Plug-In . SVG Version: 6.00 Build 0)  -->
<svg version="1.1" id="Layer_1" xmlns="http://www.w3.org/2000/svg" xmlns:xlink="http://www.w3.org/1999/xlink" x="0px" y="0px"
	 viewBox="0 0 100 100" style="enable-background:new 0 0 100 100;" xml:space="preserve">
<g>
	<g>
		<path d="M24.2,62.92c-0.08-0.28-0.13-0.48-0.18-0.69C24.01,62.21,24,62.19,24,62.16c-1.49-5.21-2.93-9.25-4.3-12.02
			c-1.74-3.56-5.67-7.09-8.41-7.56c-1.16-0.22-1.67,0.17-1.99,0.53c-2.66,3.05-0.85,5.07-0.46,5.44c0.59,0.57,0.63,1.51,0.07,2.11
			c-0.56,0.6-1.49,0.65-2.1,0.09c-1.57-1.43-3.55-5.28,0.23-9.61c1.16-1.35,2.87-1.88,4.79-1.52c4.08,0.7,8.67,5.32,10.56,9.19
			c1.45,2.94,2.98,7.19,4.52,12.62c0.01,0.05,0.03,0.1,0.04,0.16c0.04,0.16,0.08,0.3,0.12,0.45l-1.42,0.48L24.2,62.92z" fill="#9d3c72"/>
	</g>
	<g>
		<path d="M25.47,63.35c-0.01,0-0.02,0-0.04,0c-0.81-0.02-1.46-0.67-1.46-1.48c0-0.02,0-0.09,0-0.11
			c0.34-7.07,0.18-12.79-0.47-16.55c-0.67-3.94-3.57-8.46-6.2-9.68c-1.12-0.52-1.81-0.25-2.22-0.01c-3.27,1.93-2.63,4.07-2.21,4.9
			c0.38,0.74,0.08,1.64-0.65,2.02c-0.74,0.38-1.64,0.08-2.02-0.65c-1.25-2.44-1.12-6.22,3.35-8.85c1.52-0.9,3.25-0.95,5.01-0.13
			c3.93,1.82,7.16,7.59,7.9,11.9c0.68,3.97,0.86,9.92,0.5,17.2C26.93,62.71,26.27,63.35,25.47,63.35z" fill="#9d3c72"/>
	</g>
</g>
<path d="M41.47,86.16c10.28,5.33,17.46,5.88,20,4.05c0.38-0.27,1.55-1.11,1.13-3.83c-0.19-1.28-0.85-2.32-2.04-3.29
	c-4.55-1.69-8.91-3.37-13.32-5.14c0,0-0.01,0-0.01,0c-0.01,0-0.02,0-0.02-0.01c-2.94-0.86-6.05-1.83-8.85-3.11
	c-1.52-0.69-2.88-1.45-4.06-2.24c-0.05-0.03-0.1-0.07-0.15-0.11c-2.22-1.53-4.31-3.03-6.22-4.48c-1.22-0.9-2.42-1.82-3.54-2.72
	c-1.76-1.42-3.21-2.68-4.4-3.72c-0.5-0.44-1.2-0.61-1.85-0.45c-0.35,0.08-0.98,0.33-1.29,1.07C14.47,67.89,29.59,79.99,41.47,86.16z
	" fill="#9d3c72"/>
<path d="M77.27,69.01c-10.82,1.69-21.62,3.38-32.42,5.07c1,0.32,2.04,0.64,3.16,0.97c0.02,0,0.04,0.01,0.05,0.01c0,0,0,0,0.01,0
	c0,0,0.01,0,0.01,0c0.06,0.02,0.12,0.04,0.19,0.06c4.51,1.81,8.95,3.53,13.6,5.25c26.59,9.71,29.77,7.11,30.14,6.49
	c0.48-0.81-0.31-4.2-6.74-11.34C82.98,72.94,80.28,70.76,77.27,69.01z" fill="#9d3c72"/>
<circle cx="70.63" cy="31.23" r="3" fill="#9d3c72"/>
<path d="M36.06,70.16c0,0,0.01,0.01,0.01,0.01c0,0,0.01,0.01,0.01,0.01c0.91,0.61,1.97,1.19,3.13,1.74
	c0.16-0.03,0.31-0.05,0.47-0.07c0.02,0,0.04,0,0.06-0.01c12.25-1.92,24.51-3.83,36.78-5.75c2.93-6.5,6.1-16.58,5.37-28.78
	c-0.39-6.58-1.88-13.07-4.43-19.3c-3.55,1.4-7.06,3.09-10.44,5.03c-6.59,3.74-12.61,8.37-17.89,13.77
	c-8.12,8.28-14.49,18.44-18.49,29.46c1.66,1.24,3.44,2.51,5.31,3.8v0C35.99,70.1,36.03,70.13,36.06,70.16z M70.63,25.23
	c3.31,0,6,2.69,6,6s-2.69,6-6,6s-6-2.69-6-6S67.32,25.23,70.63,25.23z M70.63,45.77c3.31,0,6,2.69,6,6s-2.69,6-6,6s-6-2.69-6-6
	S67.32,45.77,70.63,45.77z" fill="#9d3c72"/>
<path d="M54.25,9.29c-0.57,4.1-1.61,7.91-3.18,11.59c-2.77,6.57-6.34,10.54-9.8,14.39c-1.52,1.7-3.1,3.45-4.58,5.41
	c-4.73,6.23-7.98,13.91-9.7,22.82c0.38,0.3,0.75,0.59,1.14,0.89c4.16-11.08,10.65-21.31,18.86-29.67
	c5.23-5.35,11.17-9.96,17.63-13.74c-0.53-2.66-1.67-5.07-3.31-7.01C59.52,11.87,57.1,10.27,54.25,9.29z" fill="#9d3c72"/>
<circle cx="70.63" cy="51.77" r="3" fill="#9d3c72"/>
</svg>
