<svg width="234" height="36" viewBox="0 0 234 36" fill="none" xmlns="http://www.w3.org/2000/svg">
<mask id="mask0_227_2" style="mask-type:luminance" maskUnits="userSpaceOnUse" x="162" y="0" width="23" height="17">
<path d="M162.163 0H184.292V16.8711H162.163V0Z" fill="white"/>
</mask>
<g mask="url(#mask0_227_2)">
<mask id="mask1_227_2" style="mask-type:luminance" maskUnits="userSpaceOnUse" x="162" y="-1" width="26" height="20">
<path d="M162.266 6.55515L182.763 -0.0790405L187.629 11.8098L167.132 18.4462L162.266 6.55515Z" fill="white"/>
</mask>
<g mask="url(#mask1_227_2)">
<mask id="mask2_227_2" style="mask-type:luminance" maskUnits="userSpaceOnUse" x="162" y="-1" width="26" height="20">
<path d="M162.266 6.55515L182.763 -0.0790405L187.629 11.8098L167.132 18.4462L162.266 6.55515Z" fill="white"/>
</mask>
<g mask="url(#mask2_227_2)">
<mask id="mask3_227_2" style="mask-type:luminance" maskUnits="userSpaceOnUse" x="162" y="0" width="22" height="17">
<path d="M183.082 0.905101C182.904 0.61513 182.62 0.45257 182.252 0.399848C181.788 0.333945 181.353 0.421816 180.904 0.549227C180.136 0.768903 179.461 1.12478 178.876 1.60367C177.688 2.57683 176.651 3.65763 175.858 4.90758C175.369 5.67645 175.07 6.49803 174.998 7.37673C174.645 6.96155 174.418 6.74187 174.319 6.654C174.344 6.61226 174.361 6.56613 174.369 6.52C174.371 6.50462 174.374 6.49144 174.376 6.47606C174.376 6.47387 174.376 6.47387 174.376 6.47167C174.376 6.45849 174.376 6.44531 174.376 6.43213C174.376 6.42993 174.376 6.42774 174.376 6.42554C174.376 6.41236 174.374 6.39918 174.371 6.386C174.371 6.3838 174.371 6.37941 174.371 6.37721C174.369 6.36403 174.366 6.35305 174.364 6.33987C174.361 6.33547 174.361 6.33328 174.361 6.32888C174.356 6.3135 174.351 6.29813 174.344 6.28055C174.339 6.26518 174.332 6.2498 174.322 6.23662C174.322 6.23442 174.319 6.23222 174.319 6.23003C174.312 6.21685 174.304 6.20367 174.295 6.19268V6.19049C174.235 6.10921 174.151 6.0455 174.055 6.00816C174.08 5.40844 174.24 4.34302 174.984 3.53461C175.028 3.48629 175.021 3.41819 174.966 3.37864C174.912 3.3413 174.833 3.35009 174.789 3.39622C174.006 4.24856 173.83 5.33375 173.801 5.97081C173.778 5.97081 173.754 5.97521 173.731 5.9774C173.724 5.9796 173.719 5.9796 173.714 5.9818C173.707 5.98399 173.699 5.98399 173.689 5.98619C173.675 5.99058 173.66 5.99498 173.645 5.99937C173.593 6.01475 173.546 6.03891 173.507 6.06527C173.025 5.59517 172.104 4.86365 170.889 4.65935C170.82 4.64837 170.753 4.68791 170.74 4.74722C170.726 4.80873 170.77 4.86585 170.837 4.87683C171.993 5.07014 172.884 5.79507 173.339 6.24101C173.275 6.35305 173.262 6.48924 173.314 6.61446C173.366 6.74187 173.472 6.83633 173.601 6.88686C173.591 7.00988 173.573 7.30863 173.603 7.82707C172.914 7.1966 172.091 6.73748 171.163 6.42774C169.651 5.92468 168.073 5.68963 166.46 5.62372C165.667 5.59077 164.892 5.70281 164.146 5.9752C163.709 6.13337 163.314 6.3157 163.005 6.63203C162.76 6.88027 162.662 7.16804 162.736 7.49316C162.812 7.83585 163.012 8.12583 163.274 8.37626C163.677 8.75629 164.102 9.12095 164.526 9.48561C164.778 9.7009 164.996 9.93595 165.161 10.2083C165.369 10.5576 165.559 10.9135 165.786 11.2496C166.344 12.0756 167.624 12.5171 168.745 11.9877C168.77 11.9745 168.797 11.9701 168.797 11.9701C168.589 12.2821 168.372 12.6006 168.167 12.9257C168.026 13.1498 168.004 13.3914 168.056 13.6397C168.125 13.9692 168.3 14.2548 168.523 14.5184C169.207 15.318 170.106 15.8826 171.133 16.2999C171.538 16.4625 171.961 16.5833 172.41 16.6185C172.679 16.6382 173.04 16.5306 173.279 16.4142C173.791 16.1659 174.065 15.8672 174.379 15.441C174.687 15.0258 174.87 14.5667 175.038 14.101C175.28 13.42 175.497 12.7346 175.554 12.0229C175.554 12.0229 176.364 13.9055 176.819 13.7561C177.276 13.6089 176.537 11.7043 176.537 11.7043C177.095 12.2162 177.755 12.6182 178.434 13.0004C178.898 13.2618 179.37 13.5101 179.906 13.6507C180.454 13.7978 180.882 13.8703 181.452 13.7671C181.719 13.721 182.075 13.5957 182.265 13.4266C182.586 13.1432 182.82 12.8115 183.013 12.4534C183.497 11.5462 183.779 10.6016 183.724 9.59765C183.707 9.26814 183.633 8.94961 183.448 8.65744C183.309 8.43776 183.117 8.26422 182.848 8.17415C182.457 8.04015 182.057 7.92153 181.672 7.80071C181.674 7.80071 181.699 7.78972 181.726 7.78313C182.969 7.55028 183.631 6.48046 183.46 5.52926C183.391 5.14044 183.28 4.7582 183.188 4.37377C183.114 4.07062 183.112 3.76527 183.149 3.45553C183.213 2.9349 183.275 2.41207 183.307 1.88925C183.329 1.54875 183.27 1.21265 183.082 0.905101Z" fill="white"/>
</mask>
<g mask="url(#mask3_227_2)">
<path d="M156.771 2.24076L165.132 22.6749L189.672 14.7315L181.309 -5.7027L156.771 2.24076Z" fill="url(#paint0_linear_227_2)"/>
</g>
</g>
</g>
</g>
<path d="M11.7868 20.9597C12.1474 20.8411 12.5451 20.7906 12.9254 20.8587C18.5221 21.7176 25.1215 22.0229 30.4711 18.2423C30.6984 18.0908 30.7181 17.8206 30.5477 17.6185C30.3773 17.4339 30.0735 17.3988 29.8635 17.5525C25.3882 20.7071 20.0954 20.8587 15.1063 20.2677C14.9556 20.2502 14.8223 20.1337 14.7852 19.9975C14.7457 19.846 14.8223 19.6944 14.9729 19.6263C17.8009 18.1259 20.3794 15.8127 22.7702 13.3502C23.074 13.0294 23.5284 12.8273 24.0026 12.7592L24.3262 12.7263C32.4248 11.7487 37.8485 5.13431 37.9819 2.60365C38.0387 1.65905 37.3941 1.4218 37.11 1.35589C33.2398 0.545293 29.5425 4.61148 25.2548 9.30155C24.6102 10.0265 23.9261 10.769 23.2444 11.4939C22.9406 11.8146 22.5034 12.0167 22.049 12.0343C17.344 12.2869 14.311 11.2413 13.5701 9.08187C12.8118 6.87194 14.7655 3.80088 17.7046 2.53555C17.9515 2.4345 18.0652 2.1643 17.9515 1.94682C17.8182 1.72715 17.5341 1.64147 17.2872 1.74252C13.8541 3.21215 11.73 6.68741 12.6216 9.3345C13.1156 10.8195 14.8791 13.047 20.987 12.9635C21.1376 12.9635 21.271 13.047 21.3278 13.1656C21.4044 13.2821 21.3673 13.4183 21.271 13.5193C18.7493 16.05 15.9979 18.328 13.039 19.5252L12.7748 19.6263C12.4142 19.7779 12.0338 19.813 11.6535 19.7449C10.8779 19.6087 10.1172 19.4747 9.39604 19.3407C5.20474 18.5631 1.88528 17.9568 0.329288 19.4242C-0.0683552 19.7625 -0.105403 20.3007 0.215676 20.6895C0.652836 21.331 2.15202 22.2931 5.01456 22.2931C7.34855 22.225 9.64303 21.7703 11.7868 20.9597ZM3.36471 19.4066C5.33811 19.4923 7.29175 19.7625 9.18858 20.1996C10.1172 20.4017 9.89001 20.6214 9.71959 20.6719C4.42674 22.1569 2.03841 20.8916 1.5074 20.6214C1.09 20.4017 1.03319 20.1996 1.03319 20.0481C1.03319 19.6087 2.32244 19.4066 3.36471 19.4066ZM36.1246 2.14892C36.3691 2.14892 36.6358 2.1643 36.8828 2.21482C36.9964 2.24997 36.9964 2.41912 36.9964 2.5707C36.9001 4.35885 32.5013 10.3142 25.2919 11.6806C25.1215 11.7136 24.9511 11.6477 24.8572 11.5115C24.7609 11.3929 24.7806 11.2259 24.8942 11.1073C25.2746 10.6855 25.6525 10.2637 26.0328 9.85733C29.787 5.74281 33.0694 2.14892 36.1246 2.14892Z" fill="black"/>
<path d="M44.6035 16.9769C44.3935 16.81 44.0897 16.81 43.8996 16.9945C43.8255 17.045 37.6781 22.6138 33.6004 19.9645C32.3482 19.1539 33.5633 17.045 33.5831 17.0275C33.6967 16.81 33.6004 16.5552 33.3534 16.4387C33.1089 16.3377 32.8224 16.4036 32.6915 16.6233C32.6149 16.7243 31.0787 19.4066 33.0125 20.6719C33.9042 21.2628 35.0057 21.5835 36.1245 21.566C40.222 21.566 44.3738 17.8051 44.6035 17.603C44.6973 17.5174 44.7541 17.4163 44.7541 17.2977C44.7344 17.1812 44.6973 17.0626 44.6035 16.9769ZM32.4815 15.6457C32.5581 15.6457 32.6347 15.6281 32.7088 15.5952C33.1657 15.3909 33.5633 15.1229 33.9239 14.8022C34.1141 14.6154 34.0943 14.3452 33.9042 14.1783C33.6967 14.0091 33.3929 14.0091 33.2027 14.1937C32.9187 14.4463 32.5951 14.6506 32.2346 14.8175C32.0444 14.9032 31.9308 15.1229 31.9876 15.3074C32.0444 15.5095 32.2543 15.6457 32.4815 15.6457Z" fill="black"/>
<path d="M56.9686 16.944C56.7809 16.7748 56.4573 16.7748 56.2672 16.9616C56.2301 16.9945 51.0904 21.6011 47.6746 20.4522C46.1581 19.9294 45.5135 18.3609 45.2665 16.81C45.6074 16.0675 46.1779 14.8351 46.7089 13.4511C46.7657 13.282 46.8225 13.2666 47.0497 13.249C49.611 13.0799 52.1524 12.9964 53.6491 12.9964C53.9356 12.9964 54.1431 12.7943 54.1431 12.5571C54.1431 12.3044 53.9356 12.1199 53.6491 12.1199C52.2092 12.1199 49.8382 12.221 47.4103 12.3374C47.314 12.355 47.1436 12.3044 47.277 12.0013C48.1883 9.6903 48.833 7.34417 48.4328 6.63682C48.0352 5.92727 47.5042 5.90969 47.2399 5.96022C45.8346 6.19747 44.8121 9.43548 44.3552 12.0848C44.3181 12.322 44.1847 12.5241 43.9378 12.5417C40.9616 12.7438 38.514 12.8954 38.4745 12.8954C38.1905 12.9129 37.983 13.115 38.0003 13.3677C38.0003 13.6027 38.23 13.807 38.514 13.7894H38.551C38.6079 13.7894 40.9048 13.6379 43.7673 13.4511C43.8637 13.4358 43.9575 13.4511 44.0341 13.5192C44.1082 13.5698 44.165 13.6532 44.165 13.7389C43.8809 17.7546 45.0195 20.5049 47.314 21.2804C47.808 21.4319 48.3192 21.5154 48.8502 21.5154C52.6069 21.5154 56.7809 17.7546 56.9883 17.5854C57.0847 17.4998 57.1217 17.3833 57.1217 17.2647C57.1217 17.1461 57.0649 17.0275 56.9686 16.944ZM45.3604 12.0518C45.7975 9.486 46.6694 7.4628 47.1831 6.93997C47.2399 6.90482 47.314 6.88944 47.3906 6.90482C47.4474 6.92239 47.5042 6.95535 47.5437 7.02345C47.7709 7.4628 47.1263 9.60463 46.1581 12.1529C46.1211 12.3044 45.9877 12.4231 45.7975 12.4384C45.7037 12.456 45.6074 12.456 45.4937 12.456C45.3036 12.456 45.3431 12.1858 45.3604 12.0694V12.0518ZM45.1331 14.7011C44.943 14.7011 45.0195 13.5192 45.19 13.3501C45.3431 13.2666 45.5308 13.249 45.6839 13.3347C45.8543 13.4687 45.3431 14.7011 45.1331 14.7011Z" fill="black"/>
<path d="M69.0894 16.944C68.9017 16.7748 68.5782 16.7748 68.388 16.9616C68.351 16.9945 63.2112 21.6011 59.7955 20.4522C58.279 19.9294 57.6344 18.3609 57.3874 16.81C57.7282 16.0675 58.2987 14.8351 58.8298 13.4511C58.8866 13.282 58.9434 13.2666 59.1706 13.249C61.7318 13.0799 64.2733 12.9964 65.77 12.9964C66.0565 12.9964 66.2639 12.7943 66.2639 12.5571C66.2639 12.3044 66.0565 12.1199 65.77 12.1199C64.3301 12.1199 61.959 12.221 59.5312 12.3374C59.4349 12.355 59.2644 12.3044 59.3978 12.0013C60.3092 9.6903 60.9538 7.34417 60.5537 6.63682C60.1561 5.92727 59.625 5.90969 59.3608 5.96022C57.9554 6.19747 56.9329 9.43548 56.476 12.0848C56.439 12.322 56.3056 12.5241 56.0586 12.5417C53.0825 12.7438 50.6348 12.8954 50.5953 12.8954C50.3113 12.9129 50.1038 13.115 50.1211 13.3677C50.1211 13.6027 50.3508 13.807 50.6348 13.7894H50.6719C50.7287 13.7894 53.0256 13.6379 55.8882 13.4511C55.9845 13.4358 56.0784 13.4511 56.1549 13.5192C56.229 13.5698 56.2858 13.6532 56.2858 13.7389C56.0018 17.7546 57.1404 20.5049 59.4349 21.2804C59.9288 21.4319 60.4401 21.5154 60.9711 21.5154C64.7277 21.5154 68.9017 17.7546 69.1092 17.5854C69.2055 17.4998 69.2426 17.3833 69.2426 17.2647C69.2426 17.1461 69.1858 17.0275 69.0894 16.944ZM57.4812 12.0518C57.9184 9.486 58.7902 7.4628 59.304 6.93997C59.3608 6.90482 59.4349 6.88944 59.5114 6.90482C59.5682 6.92239 59.625 6.95535 59.6646 7.02345C59.8918 7.4628 59.2472 9.60463 58.279 12.1529C58.2419 12.3044 58.1086 12.4231 57.9184 12.4384C57.8245 12.456 57.7282 12.456 57.6146 12.456C57.4244 12.456 57.4639 12.1858 57.4812 12.0694V12.0518ZM57.254 14.7011C57.0638 14.7011 57.1404 13.5192 57.3108 13.3501C57.4639 13.2666 57.6516 13.249 57.8048 13.3347C57.9752 13.4687 57.4639 14.7011 57.254 14.7011Z" fill="black"/>
<path d="M81.2498 17.2142C81.1535 17.1307 81.0226 17.078 80.8892 17.078C80.7558 17.078 80.6225 17.1307 80.5286 17.2142C80.4916 17.2471 75.5025 21.6165 71.9163 20.6565C70.6468 20.3182 69.9454 19.2396 69.5453 18.0907C69.4317 17.7194 69.4712 17.3152 69.6589 16.9616C70.9877 14.5649 74.2503 8.28878 72.6375 6.75325C72.2596 6.33147 71.6323 6.19747 71.0815 6.39957C69.1674 7.14207 67.8954 12.1199 68.1227 15.7468C68.1622 16.3025 68.2363 16.8605 68.3499 17.4163C68.3499 17.4844 68.3499 17.5349 68.3894 17.5854C68.8809 19.7119 70.0022 21.0783 71.6323 21.5C72.0867 21.6165 72.5437 21.6846 72.9981 21.6846C76.8486 21.6846 81.0399 18.0072 81.2301 17.8381C81.3264 17.7546 81.3832 17.6535 81.3832 17.5349C81.3832 17.3987 81.3437 17.2977 81.2498 17.2142ZM69.1674 15.4941C68.5796 12.6757 70.5332 7.56385 71.4816 7.21017C71.5187 7.1926 71.5557 7.17502 71.5952 7.17502C71.6693 7.17502 71.7657 7.21017 71.899 7.34417C72.6573 8.05372 70.4937 14.1607 69.4885 15.5952C69.3946 15.7468 69.2044 15.6611 69.1674 15.4941Z" fill="black"/>
<path d="M96.6146 17.1967C96.5183 17.1132 96.4047 17.0451 96.2713 17.0451C96.1404 17.0275 96.007 17.0627 95.9107 17.1308C95.8366 17.1813 88.5333 22.3436 82.4452 20.1161C81.2103 19.6614 81.1535 19.0705 81.193 18.7498C81.193 18.6992 81.2103 18.6487 81.2671 18.6136C81.3066 18.5806 81.3807 18.5806 81.44 18.5982C82.6724 18.6641 83.9049 18.3785 84.9669 17.7876C85.8783 17.2648 86.0289 16.6914 85.9721 16.3202C85.9351 15.7117 85.3843 15.224 84.6829 15.2064C83.1837 15.1383 80.6793 16.7244 80.2619 18.4115C80.0914 19.0353 80.1112 20.2172 82.0648 20.9267C83.2602 21.3639 84.5124 21.566 85.7819 21.566C91.2254 21.566 96.2713 18.0073 96.5381 17.8205C96.6319 17.7546 96.7085 17.636 96.7085 17.535C96.7282 17.4163 96.6887 17.2977 96.6146 17.1967ZM81.8747 17.5679C82.6156 16.6563 83.8481 16.05 84.6261 16.1005C84.8335 16.1005 84.9471 16.1686 84.9866 16.4212C85.0039 16.5904 84.7965 16.8254 84.4161 17.0451C83.6381 17.4998 81.3066 18.2423 81.8747 17.5679Z" fill="black"/>
<path d="M124.138 1.94681C120.892 -0.162072 114.444 0.123506 111.03 1.11863C105.737 2.68711 103.082 5.32102 102.855 7.10918C102.722 7.71548 103.043 8.33936 103.631 8.69523C104.866 9.35206 107.18 8.79628 110.005 7.14213C110.233 7.00813 110.289 6.72035 110.139 6.51825C109.986 6.31615 109.682 6.26562 109.455 6.39963C106.572 8.08673 104.789 8.28883 104.144 7.93516C103.897 7.76601 103.764 7.48043 103.841 7.21023C103.991 5.99542 106.175 3.49772 111.334 1.96219C114.463 1.03516 120.608 0.764957 123.547 2.65416C124.629 3.31319 125.257 4.40937 125.217 5.55607C125.257 6.8895 124.612 8.17021 123.454 9.03134C120.989 10.9381 116.434 11.3423 112.984 11.3423C112.774 11.3423 112.604 11.2588 112.47 11.1073C112.357 10.9711 112.32 10.7865 112.376 10.6174C113.288 7.91758 114.006 5.6066 114.063 5.4045C114.123 5.25292 114.083 5.08377 113.95 4.96515C113.819 4.84652 113.629 4.796 113.458 4.84652C113.288 4.88167 113.154 5.01567 113.115 5.16725C113.098 5.21777 112.263 7.88463 111.258 10.87C111.181 11.1226 110.917 11.2918 110.613 11.2764C109.284 11.2083 108.412 11.1073 108.393 11.1073C108.109 11.0721 107.862 11.2413 107.824 11.4785C107.785 11.7311 107.975 11.9508 108.242 11.9838C108.279 11.9838 108.98 12.0694 110.062 12.254C110.233 12.2869 110.386 12.388 110.48 12.5242C110.573 12.6582 110.593 12.8097 110.556 12.9635C109.929 14.8681 109.208 16.7419 108.336 18.5806C108.222 18.8003 108.316 19.0529 108.563 19.1715C108.81 19.2726 109.114 19.1869 109.247 18.9694C110.139 17.0451 110.917 15.0724 111.561 13.0646C111.655 12.7944 111.979 12.6252 112.3 12.6933C115.562 13.3853 119.83 14.6155 121.139 16.4542C121.52 16.944 121.614 17.5525 121.406 18.1083C119.964 22.1921 108.79 20.1337 104.619 19.0024C104.352 18.9343 104.088 19.0705 104.011 19.3055C103.917 19.5428 104.068 19.7778 104.335 19.8459C104.712 19.9646 110.233 21.432 115.108 21.432C118.465 21.432 121.52 20.7224 122.355 18.3785C122.658 17.5855 122.525 16.6914 121.994 15.9819C121.045 14.666 118.902 13.6379 116.568 12.8954C116.36 12.8273 116.227 12.6428 116.264 12.4385C116.284 12.2364 116.454 12.0848 116.681 12.0694C119.433 11.7992 122.258 11.1226 124.098 9.70574C125.464 8.67766 126.242 7.1597 126.222 5.55607C126.262 4.12159 125.484 2.75521 124.138 1.94681Z" fill="black"/>
<path d="M140.356 16.7925C140.259 16.709 140.126 16.6738 139.995 16.6738C139.862 16.6738 139.748 16.7244 139.652 16.81C137.945 18.4115 134.114 20.7576 131.306 20.7576H131.269C130.491 20.7905 129.75 20.5203 129.219 20.0305C128.537 19.3736 129.012 17.5855 129.239 17.0121C129.333 16.7925 129.219 16.5552 128.992 16.4717C128.784 16.3707 128.5 16.4212 128.367 16.6057C126.905 18.4971 124.82 20.3358 124.136 19.9799C123.909 19.8459 124.25 18.5477 125.181 17.078C125.294 16.8759 125.218 16.6233 124.991 16.5047C124.763 16.3883 124.46 16.4388 124.326 16.6409C123.682 17.636 122.336 20.048 123.625 20.74C124.65 21.2804 126.033 20.4017 127.191 19.3407C127.305 19.2221 127.475 19.1869 127.626 19.2396C127.779 19.2726 127.893 19.3912 127.93 19.5428C127.987 19.947 128.177 20.3182 128.481 20.639C129.202 21.3134 130.207 21.6846 131.249 21.6517H131.306C134.435 21.6517 138.496 19.1869 140.373 17.4339C140.469 17.3329 140.506 17.2318 140.506 17.1132C140.506 16.9946 140.449 16.8759 140.356 16.7925Z" fill="black"/>
<path d="M152.607 16.944C152.419 16.7748 152.095 16.7748 151.905 16.9616C151.868 16.9945 146.728 21.6011 143.313 20.4522C141.796 19.9294 141.151 18.3609 140.904 16.81C141.245 16.0675 141.816 14.8351 142.347 13.4511C142.404 13.282 142.46 13.2666 142.688 13.249C145.249 13.0799 147.79 12.9964 149.287 12.9964C149.574 12.9964 149.781 12.7943 149.781 12.5571C149.781 12.3044 149.574 12.1199 149.287 12.1199C147.847 12.1199 145.476 12.221 143.048 12.3374C142.952 12.355 142.782 12.3044 142.915 12.0013C143.826 9.6903 144.471 7.34417 144.071 6.63682C143.673 5.92727 143.142 5.90969 142.878 5.96022C141.473 6.19747 140.45 9.43548 139.993 12.0848C139.956 12.322 139.823 12.5241 139.576 12.5417C136.6 12.7438 134.152 12.8954 134.112 12.8954C133.828 12.9129 133.621 13.115 133.638 13.3677C133.638 13.6027 133.868 13.807 134.152 13.7894H134.189C134.246 13.7894 136.543 13.6379 139.405 13.4511C139.502 13.4358 139.595 13.4511 139.672 13.5192C139.746 13.5698 139.803 13.6532 139.803 13.7389C139.519 17.7546 140.657 20.5049 142.952 21.2804C143.446 21.4319 143.957 21.5154 144.488 21.5154C148.245 21.5154 152.419 17.7546 152.626 17.5854C152.723 17.4998 152.76 17.3833 152.76 17.2647C152.76 17.1461 152.703 17.0275 152.607 16.944ZM140.998 12.0518C141.435 9.486 142.307 7.4628 142.821 6.93997C142.878 6.90482 142.952 6.88944 143.029 6.90482C143.085 6.92239 143.142 6.95535 143.182 7.02345C143.409 7.4628 142.764 9.60463 141.796 12.1529C141.759 12.3044 141.626 12.4231 141.435 12.4384C141.342 12.456 141.245 12.456 141.132 12.456C140.942 12.456 140.981 12.1858 140.998 12.0694V12.0518ZM140.771 14.7011C140.581 14.7011 140.657 13.5192 140.828 13.3501C140.981 13.2666 141.169 13.249 141.322 13.3347C141.492 13.4687 140.981 14.7011 140.771 14.7011Z" fill="black"/>
<path d="M164.728 16.944C164.54 16.7748 164.216 16.7748 164.026 16.9616C163.989 16.9945 158.849 21.6011 155.434 20.4522C153.917 19.9294 153.273 18.3609 153.026 16.81C153.366 16.0675 153.937 14.8351 154.468 13.4511C154.525 13.282 154.582 13.2666 154.809 13.249C157.37 13.0799 159.911 12.9964 161.408 12.9964C161.695 12.9964 161.902 12.7943 161.902 12.5571C161.902 12.3044 161.695 12.1199 161.408 12.1199C159.968 12.1199 157.597 12.221 155.169 12.3374C155.073 12.355 154.903 12.3044 155.036 12.0013C155.947 9.6903 156.592 7.34417 156.192 6.63682C155.794 5.92727 155.263 5.90969 154.999 5.96022C153.594 6.19747 152.571 9.43548 152.114 12.0848C152.077 12.322 151.944 12.5241 151.697 12.5417C148.721 12.7438 146.273 12.8954 146.234 12.8954C145.949 12.9129 145.742 13.115 145.759 13.3677C145.759 13.6027 145.989 13.807 146.273 13.7894H146.31C146.367 13.7894 148.664 13.6379 151.526 13.4511C151.623 13.4358 151.717 13.4511 151.793 13.5192C151.867 13.5698 151.924 13.6532 151.924 13.7389C151.64 17.7546 152.779 20.5049 155.073 21.2804C155.567 21.4319 156.078 21.5154 156.609 21.5154C160.366 21.5154 164.54 17.7546 164.747 17.5854C164.844 17.4998 164.881 17.3833 164.881 17.2647C164.881 17.1461 164.824 17.0275 164.728 16.944ZM153.119 12.0518C153.557 9.486 154.428 7.4628 154.942 6.93997C154.999 6.90482 155.073 6.88944 155.15 6.90482C155.206 6.92239 155.263 6.95535 155.303 7.02345C155.53 7.4628 154.885 9.60463 153.917 12.1529C153.88 12.3044 153.747 12.4231 153.557 12.4384C153.463 12.456 153.366 12.456 153.253 12.456C153.063 12.456 153.102 12.1858 153.119 12.0694V12.0518ZM152.892 14.7011C152.702 14.7011 152.779 13.5192 152.949 13.3501C153.102 13.2666 153.29 13.249 153.443 13.3347C153.613 13.4687 153.102 14.7011 152.892 14.7011Z" fill="black"/>
<path d="M179.753 17.1967C179.656 17.1132 179.543 17.0451 179.409 17.0451C179.279 17.0275 179.145 17.0627 179.049 17.1308C178.975 17.1813 171.672 22.3436 165.583 20.1161C164.348 19.6614 164.292 19.0705 164.331 18.7498C164.331 18.6992 164.348 18.6487 164.405 18.6136C164.445 18.5806 164.519 18.5806 164.578 18.5982C165.811 18.6641 167.043 18.3785 168.105 17.7876C169.016 17.2648 169.167 16.6914 169.11 16.3202C169.073 15.7117 168.522 15.224 167.821 15.2064C166.322 15.1383 163.817 16.7244 163.4 18.4115C163.23 19.0353 163.249 20.2172 165.203 20.9267C166.398 21.3639 167.651 21.566 168.92 21.566C174.364 21.566 179.409 18.0073 179.676 17.8205C179.77 17.7546 179.847 17.636 179.847 17.535C179.866 17.4163 179.827 17.2977 179.753 17.1967ZM165.013 17.5679C165.754 16.6563 166.986 16.05 167.764 16.1005C167.972 16.1005 168.085 16.1686 168.125 16.4212C168.142 16.5904 167.935 16.8254 167.554 17.0451C166.776 17.4998 164.445 18.2423 165.013 17.5679Z" fill="black"/>
<path d="M195.381 17.0956C195.287 17.0121 195.174 16.9616 195.04 16.9616C194.907 16.9616 194.774 17.0121 194.68 17.0956C191.397 19.947 185.576 20.5555 184.324 19.8965C183.469 19.4571 183.565 18.9343 184.171 17.8886C184.455 17.3834 184.778 16.7924 184.227 16.4388C183.716 16.1005 183.222 16.3201 182.787 16.5222C182.16 16.843 181.459 17.0121 180.72 17.0121C180.547 17.0121 180.397 16.7419 180.434 16.6409C181.496 14.5649 181.022 14.1783 180.851 14.0245C180.567 13.7719 180.13 13.7895 179.599 14.0751C178.727 14.633 178.349 15.6282 178.65 16.5552C178.727 16.81 178.86 17.0451 179.051 17.2472C179.031 17.4339 179.125 17.603 179.315 17.6865C179.428 17.7371 179.562 17.7371 179.695 17.7041C180.016 17.8381 180.377 17.9062 180.737 17.9062C181.515 17.9216 182.274 17.77 182.958 17.4339C183.222 17.3153 183.318 17.4163 183.279 17.4844C182.824 18.2775 182.009 19.7273 183.83 20.6719C184.474 20.9421 185.196 21.0607 185.917 21.0102C188.572 21.0102 192.746 19.9975 195.361 17.7195C195.458 17.6536 195.514 17.5349 195.514 17.4163C195.534 17.2977 195.477 17.1813 195.381 17.0956ZM179.582 16.1686C179.468 15.6787 179.656 15.1734 180.093 14.8527C179.959 15.3074 179.789 15.7468 179.582 16.1839V16.1686Z" fill="black"/>
<path d="M207.122 17.1461C207.028 17.0626 206.914 17.0121 206.781 17.0121C206.648 17.0121 206.517 17.0451 206.42 17.1307C204.089 19.121 198.112 18.2269 195.97 17.5855C195.533 17.4668 195.553 17.3153 195.817 17.078C197.163 15.7292 199.838 12.8954 199.478 11.7311C199.404 11.4433 199.137 11.2259 198.816 11.1402C198.472 11.0567 198.112 11.1072 197.811 11.2764C196.482 11.9332 195.363 14.7516 194.661 16.8759L194.642 16.9111C194.565 16.9616 194.528 17.0451 194.508 17.1307C194.224 17.2472 194.148 17.4339 194.224 18.328C194.224 18.3609 194.224 18.3785 194.205 18.3961C193.105 22.3941 192.137 28.2309 193.37 29.2436C193.523 29.3776 193.73 29.4457 193.94 29.4457C194.054 29.4457 194.168 29.4281 194.261 29.3952C196.158 28.8043 195.857 24.5184 195.363 19.813C195.326 19.4571 195.286 19.1034 195.249 18.7827C195.23 18.4971 195.42 18.3609 195.741 18.462C197.223 18.8684 198.739 19.121 200.275 19.2045C202.456 19.3407 205.435 19.2045 207.105 17.77C207.312 17.603 207.312 17.3153 207.122 17.1461ZM198.302 12.0343C198.302 12.0343 198.416 11.9156 198.529 11.9662C198.739 12.0694 197.544 14.0245 196.482 15.0043C195.249 16.1334 197.791 12.4055 198.302 12.0343ZM193.997 28.5341C193.296 28.433 194.091 21.4649 194.491 21.4649C194.889 21.4649 194.699 28.6351 193.997 28.5341Z" fill="black"/>
<path d="M219.396 17.2142C219.299 17.1307 219.168 17.078 219.035 17.078C218.902 17.078 218.768 17.1307 218.674 17.2142C218.637 17.2471 213.648 21.6165 210.062 20.6565C208.793 20.3182 208.091 19.2396 207.691 18.0907C207.577 17.7194 207.617 17.3152 207.805 16.9616C209.133 14.5649 212.396 8.28878 210.783 6.75325C210.405 6.33147 209.778 6.19747 209.227 6.39957C207.313 7.14207 206.041 12.1199 206.268 15.7468C206.308 16.3025 206.382 16.8605 206.496 17.4163C206.496 17.4844 206.496 17.5349 206.535 17.5854C207.027 19.7119 208.148 21.0783 209.778 21.5C210.232 21.6165 210.689 21.6846 211.144 21.6846C214.994 21.6846 219.186 18.0072 219.376 17.8381C219.472 17.7546 219.529 17.6535 219.529 17.5349C219.529 17.3987 219.489 17.2977 219.396 17.2142ZM207.313 15.4941C206.725 12.6757 208.679 7.56385 209.627 7.21017C209.664 7.1926 209.701 7.17502 209.741 7.17502C209.815 7.17502 209.911 7.21017 210.045 7.34417C210.803 8.05372 208.639 14.1607 207.634 15.5952C207.54 15.7468 207.35 15.6611 207.313 15.4941Z" fill="black"/>
<path d="M233.849 16.8935C233.639 16.7244 233.338 16.7244 233.148 16.8935C233.034 16.9946 230.55 19.1869 227.191 16.9946C227 16.8759 226.756 16.8759 226.566 17.0275C226.262 17.2648 225.938 17.5525 225.598 17.8557C225.464 17.9897 225.237 18.0402 225.047 17.9743C224.859 17.9062 224.726 17.7546 224.706 17.5679C224.706 17.2142 224.649 16.8606 224.516 16.5223C224.442 16.3377 224.232 16.2191 224.005 16.2521C223.777 16.2696 223.607 16.4212 223.567 16.6057C223.567 16.6409 222.962 19.6263 220.381 20.2348C220.154 20.3007 219.907 20.2502 219.737 20.0986C219.586 19.947 219.149 19.2726 220.134 17.1308C220.231 16.8935 220.117 16.6409 219.85 16.5552C219.603 16.4542 219.3 16.5728 219.206 16.7925C218.144 19.121 218.504 20.1996 218.978 20.6895C219.396 21.0937 220.04 21.2453 220.628 21.0783C221.957 20.7576 223.056 19.947 223.681 18.8684C223.664 19.1869 223.607 19.5077 223.55 19.846C223.53 19.9141 223.493 19.9975 223.436 20.0656C221.216 22.5458 219.206 25.5817 219.169 27.4885C219.112 27.9937 219.319 28.5012 219.717 28.8878C219.887 29.0416 220.117 29.1426 220.362 29.1426C220.571 29.125 220.779 29.0745 220.949 28.9735C222.202 28.231 223.795 23.9121 224.422 20.4698C224.442 20.3864 224.479 20.3183 224.536 20.2502C225.123 19.6087 225.731 19.0024 226.339 18.462C226.679 18.1413 227.191 18.0754 227.628 18.2775C229.675 19.2397 232.18 18.9343 233.849 17.5174C233.943 17.4339 234 17.3153 234 17.1967C234 17.078 233.943 16.977 233.849 16.8935ZM223.019 22.3085C222.602 23.9956 221.994 25.6168 221.196 27.1853C220.762 27.9608 220.571 28.2639 220.381 28.231C220.211 28.2134 220.154 27.8421 220.174 27.506C220.191 26.2737 221.33 24.2482 222.846 22.2756C222.943 22.1569 223.056 22.1921 223.019 22.3085Z" fill="black"/>
<path d="M95.9736 34.1108V33.5924H98.1372V34.1108H95.9736Z" fill="#DE15FF"/>
<path d="M105.177 30.4818H105.849V35.9297H105.177L102.49 31.5626V35.9297H101.818V30.4818H102.49L105.177 34.8489V30.4818Z" fill="#DE15FF"/>
<path d="M112.426 34.0756L111.409 31.2989L110.401 34.0756H112.426ZM111.093 30.4818H111.735L113.81 35.9297H113.108L112.624 34.6116H110.194L109.719 35.9297H109.018L111.093 30.4818Z" fill="#DE15FF"/>
<path d="M117.646 30.4818V35.9297H116.974V30.4818H117.646Z" fill="#DE15FF"/>
<path d="M121.416 30.4818H122.088V35.3937H124.528V35.9297H121.416V30.4818Z" fill="#DE15FF"/>
<path d="M127.448 35.4903L127.744 35.007C128.342 35.3124 128.865 35.464 129.315 35.464C129.493 35.464 129.651 35.4442 129.789 35.4025C129.932 35.3563 130.048 35.297 130.135 35.2267C130.219 35.1564 130.288 35.0751 130.342 34.9807C130.401 34.8884 130.441 34.7962 130.461 34.7083C130.48 34.6204 130.49 34.5303 130.49 34.4359C130.49 34.2316 130.436 34.0471 130.332 33.8823C130.226 33.7197 130.056 33.5989 129.819 33.522C129.7 33.4825 129.515 33.4408 129.265 33.399C129.013 33.3529 128.826 33.309 128.702 33.2672C128.339 33.1574 128.06 32.9772 127.862 32.7312C127.67 32.4808 127.576 32.193 127.576 31.8701C127.576 31.4615 127.729 31.1144 128.04 30.8332C128.349 30.552 128.774 30.4114 129.315 30.4114C129.789 30.4114 130.325 30.541 130.925 30.7981L130.668 31.2901C130.14 31.0617 129.69 30.9474 129.315 30.9474C128.959 30.9474 128.692 31.0397 128.514 31.2198C128.337 31.4022 128.248 31.6197 128.248 31.8701C128.248 32.0766 128.302 32.2611 128.416 32.4237C128.527 32.5818 128.702 32.6961 128.939 32.7664C129.043 32.8015 129.226 32.8432 129.483 32.8894C129.744 32.9311 129.947 32.975 130.085 33.0212C130.441 33.1442 130.708 33.3331 130.886 33.5835C131.068 33.8362 131.162 34.1196 131.162 34.4359C131.162 34.6468 131.123 34.8467 131.044 35.0334C130.965 35.2157 130.848 35.3805 130.698 35.5255C130.552 35.6727 130.357 35.7891 130.115 35.877C129.878 35.9582 129.611 36 129.315 36C128.979 36 128.663 35.956 128.366 35.8682C128.07 35.7759 127.764 35.6485 127.448 35.4903Z" fill="#DE15FF"/>
<path d="M134.501 34.1108V33.5924H136.664V34.1108H134.501Z" fill="#DE15FF"/>
<defs>
<linearGradient id="paint0_linear_227_2" x1="161.406" y1="13.5684" x2="185.209" y2="3.82772" gradientUnits="userSpaceOnUse">
<stop stop-color="#DE15FF"/>
<stop offset="0.125" stop-color="#DE15FF"/>
<stop offset="0.132812" stop-color="#DE15FF"/>
<stop offset="0.136719" stop-color="#DE17FF"/>
<stop offset="0.140625" stop-color="#DF19FF"/>
<stop offset="0.144531" stop-color="#DF1EFF"/>
<stop offset="0.148438" stop-color="#E022FF"/>
<stop offset="0.152344" stop-color="#E127FF"/>
<stop offset="0.15625" stop-color="#E12BFF"/>
<stop offset="0.160156" stop-color="#E230FF"/>
<stop offset="0.164062" stop-color="#E234FF"/>
<stop offset="0.167969" stop-color="#E338FF"/>
<stop offset="0.171875" stop-color="#E43DFF"/>
<stop offset="0.175781" stop-color="#E441FF"/>
<stop offset="0.179688" stop-color="#E546FF"/>
<stop offset="0.183594" stop-color="#E64AFF"/>
<stop offset="0.1875" stop-color="#E64EFF"/>
<stop offset="0.191406" stop-color="#E753FF"/>
<stop offset="0.195312" stop-color="#E757FF"/>
<stop offset="0.199219" stop-color="#E85CFF"/>
<stop offset="0.203125" stop-color="#E960FF"/>
<stop offset="0.207031" stop-color="#E964FF"/>
<stop offset="0.210938" stop-color="#EA69FF"/>
<stop offset="0.214844" stop-color="#EB6DFF"/>
<stop offset="0.21875" stop-color="#EB72FF"/>
<stop offset="0.222656" stop-color="#EC76FF"/>
<stop offset="0.226562" stop-color="#EC7AFF"/>
<stop offset="0.230469" stop-color="#ED7FFF"/>
<stop offset="0.234375" stop-color="#EE83FF"/>
<stop offset="0.238281" stop-color="#EE88FF"/>
<stop offset="0.242188" stop-color="#EF8CFF"/>
<stop offset="0.246094" stop-color="#EF90FF"/>
<stop offset="0.25" stop-color="#F095FF"/>
<stop offset="0.253906" stop-color="#F199FF"/>
<stop offset="0.257812" stop-color="#F19EFF"/>
<stop offset="0.261719" stop-color="#F2A2FF"/>
<stop offset="0.265625" stop-color="#F3A6FF"/>
<stop offset="0.269531" stop-color="#F3ABFF"/>
<stop offset="0.273438" stop-color="#F4AFFF"/>
<stop offset="0.277344" stop-color="#F4B4FF"/>
<stop offset="0.28125" stop-color="#F5B8FF"/>
<stop offset="0.285156" stop-color="#F6BCFF"/>
<stop offset="0.289062" stop-color="#F6C1FF"/>
<stop offset="0.292969" stop-color="#F7C5FF"/>
<stop offset="0.296875" stop-color="#F7CAFF"/>
<stop offset="0.300781" stop-color="#F8CEFF"/>
<stop offset="0.304687" stop-color="#F9D2FF"/>
<stop offset="0.308594" stop-color="#F9D7FF"/>
<stop offset="0.3125" stop-color="#FADBFF"/>
<stop offset="0.316406" stop-color="#FBE0FF"/>
<stop offset="0.320312" stop-color="#FBE4FF"/>
<stop offset="0.324219" stop-color="#FCE8FF"/>
<stop offset="0.328125" stop-color="#FCEDFF"/>
<stop offset="0.332031" stop-color="#FDF1FF"/>
<stop offset="0.335938" stop-color="#FEF6FF"/>
<stop offset="0.339844" stop-color="#FEFAFF"/>
<stop offset="0.34375" stop-color="#FFFEFF"/>
<stop offset="0.347656" stop-color="#FEFBFF"/>
<stop offset="0.351562" stop-color="#FEF7FF"/>
<stop offset="0.355469" stop-color="#FDF2FF"/>
<stop offset="0.359375" stop-color="#FDEEFF"/>
<stop offset="0.363281" stop-color="#FCEAFF"/>
<stop offset="0.367188" stop-color="#FBE5FF"/>
<stop offset="0.371094" stop-color="#FBE1FF"/>
<stop offset="0.375" stop-color="#FADCFF"/>
<stop offset="0.378906" stop-color="#FAD8FF"/>
<stop offset="0.382812" stop-color="#F9D4FF"/>
<stop offset="0.386719" stop-color="#F8CFFF"/>
<stop offset="0.390625" stop-color="#F8CBFF"/>
<stop offset="0.394531" stop-color="#F7C6FF"/>
<stop offset="0.398437" stop-color="#F6C2FF"/>
<stop offset="0.402344" stop-color="#F6BDFF"/>
<stop offset="0.40625" stop-color="#F5B9FF"/>
<stop offset="0.410156" stop-color="#F5B5FF"/>
<stop offset="0.414062" stop-color="#F4B0FF"/>
<stop offset="0.417969" stop-color="#F3ACFF"/>
<stop offset="0.421875" stop-color="#F3A7FF"/>
<stop offset="0.425781" stop-color="#F2A3FF"/>
<stop offset="0.429688" stop-color="#F19FFF"/>
<stop offset="0.433594" stop-color="#F19AFF"/>
<stop offset="0.4375" stop-color="#F096FF"/>
<stop offset="0.441406" stop-color="#F091FF"/>
<stop offset="0.445312" stop-color="#EF8DFF"/>
<stop offset="0.449219" stop-color="#EE89FF"/>
<stop offset="0.453125" stop-color="#EE84FF"/>
<stop offset="0.457031" stop-color="#ED80FF"/>
<stop offset="0.460938" stop-color="#ED7BFF"/>
<stop offset="0.464844" stop-color="#EC77FF"/>
<stop offset="0.46875" stop-color="#EB73FF"/>
<stop offset="0.472656" stop-color="#EB6EFF"/>
<stop offset="0.476562" stop-color="#EA6AFF"/>
<stop offset="0.480469" stop-color="#E965FF"/>
<stop offset="0.484375" stop-color="#E961FF"/>
<stop offset="0.488281" stop-color="#E85DFF"/>
<stop offset="0.492188" stop-color="#E858FF"/>
<stop offset="0.496094" stop-color="#E754FF"/>
<stop offset="0.5" stop-color="#E64FFF"/>
<stop offset="0.503906" stop-color="#E64BFF"/>
<stop offset="0.507812" stop-color="#E547FF"/>
<stop offset="0.511719" stop-color="#E442FF"/>
<stop offset="0.515625" stop-color="#E43EFF"/>
<stop offset="0.519531" stop-color="#E339FF"/>
<stop offset="0.523438" stop-color="#E335FF"/>
<stop offset="0.527344" stop-color="#E231FF"/>
<stop offset="0.53125" stop-color="#E12CFF"/>
<stop offset="0.535156" stop-color="#E128FF"/>
<stop offset="0.539062" stop-color="#E023FF"/>
<stop offset="0.542969" stop-color="#E01FFF"/>
<stop offset="0.546875" stop-color="#DF1BFF"/>
<stop offset="0.550781" stop-color="#DF19FF"/>
<stop offset="0.554688" stop-color="#DF18FF"/>
<stop offset="0.558594" stop-color="#DF1CFF"/>
<stop offset="0.5625" stop-color="#E021FF"/>
<stop offset="0.566406" stop-color="#E025FF"/>
<stop offset="0.570313" stop-color="#E12AFF"/>
<stop offset="0.574219" stop-color="#E22EFF"/>
<stop offset="0.578125" stop-color="#E232FF"/>
<stop offset="0.582031" stop-color="#E337FF"/>
<stop offset="0.585938" stop-color="#E33BFF"/>
<stop offset="0.589844" stop-color="#E440FF"/>
<stop offset="0.59375" stop-color="#E544FF"/>
<stop offset="0.597656" stop-color="#E548FF"/>
<stop offset="0.601563" stop-color="#E64DFF"/>
<stop offset="0.605469" stop-color="#E751FF"/>
<stop offset="0.609375" stop-color="#E756FF"/>
<stop offset="0.613281" stop-color="#E85AFF"/>
<stop offset="0.617188" stop-color="#E85EFF"/>
<stop offset="0.621094" stop-color="#E963FF"/>
<stop offset="0.625" stop-color="#EA67FF"/>
<stop offset="0.628906" stop-color="#EA6CFF"/>
<stop offset="0.632813" stop-color="#EB70FF"/>
<stop offset="0.636719" stop-color="#EC75FF"/>
<stop offset="0.640625" stop-color="#EC79FF"/>
<stop offset="0.644531" stop-color="#ED7DFF"/>
<stop offset="0.648438" stop-color="#ED82FF"/>
<stop offset="0.652344" stop-color="#EE86FF"/>
<stop offset="0.65625" stop-color="#EF8BFF"/>
<stop offset="0.660156" stop-color="#EF8FFF"/>
<stop offset="0.664062" stop-color="#F093FF"/>
<stop offset="0.667969" stop-color="#F098FF"/>
<stop offset="0.671875" stop-color="#F19CFF"/>
<stop offset="0.675781" stop-color="#F2A1FF"/>
<stop offset="0.679688" stop-color="#F2A5FF"/>
<stop offset="0.683594" stop-color="#F3A9FF"/>
<stop offset="0.6875" stop-color="#F4AEFF"/>
<stop offset="0.691406" stop-color="#F4B2FF"/>
<stop offset="0.695312" stop-color="#F5B7FF"/>
<stop offset="0.699219" stop-color="#F5BBFF"/>
<stop offset="0.703125" stop-color="#F6BFFF"/>
<stop offset="0.707031" stop-color="#F7C4FF"/>
<stop offset="0.710937" stop-color="#F7C8FF"/>
<stop offset="0.714844" stop-color="#F8CDFF"/>
<stop offset="0.71875" stop-color="#F9D1FF"/>
<stop offset="0.722656" stop-color="#F9D5FF"/>
<stop offset="0.726562" stop-color="#FADAFF"/>
<stop offset="0.730469" stop-color="#FADEFF"/>
<stop offset="0.734375" stop-color="#FBE3FF"/>
<stop offset="0.738281" stop-color="#FCE7FF"/>
<stop offset="0.742187" stop-color="#FCEBFF"/>
<stop offset="0.746094" stop-color="#FDF0FF"/>
<stop offset="0.75" stop-color="#FDF4FF"/>
<stop offset="0.753906" stop-color="#FEF9FF"/>
<stop offset="0.757812" stop-color="#FFFDFF"/>
<stop offset="0.761719" stop-color="#FEFBFF"/>
<stop offset="0.765625" stop-color="#FEF8FF"/>
<stop offset="0.769531" stop-color="#FDF4FF"/>
<stop offset="0.773437" stop-color="#FDEFFF"/>
<stop offset="0.777344" stop-color="#FCEBFF"/>
<stop offset="0.78125" stop-color="#FCE7FF"/>
<stop offset="0.785156" stop-color="#FBE2FF"/>
<stop offset="0.789062" stop-color="#FADEFF"/>
<stop offset="0.792969" stop-color="#FAD9FF"/>
<stop offset="0.796875" stop-color="#F9D5FF"/>
<stop offset="0.800781" stop-color="#F8D1FF"/>
<stop offset="0.804687" stop-color="#F8CCFF"/>
<stop offset="0.808594" stop-color="#F7C8FF"/>
<stop offset="0.8125" stop-color="#F7C3FF"/>
<stop offset="0.816406" stop-color="#F6BFFF"/>
<stop offset="0.820312" stop-color="#F5BBFF"/>
<stop offset="0.824219" stop-color="#F5B6FF"/>
<stop offset="0.828125" stop-color="#F4B2FF"/>
<stop offset="0.832031" stop-color="#F4ADFF"/>
<stop offset="0.835937" stop-color="#F3A9FF"/>
<stop offset="0.839844" stop-color="#F2A5FF"/>
<stop offset="0.84375" stop-color="#F2A0FF"/>
<stop offset="0.847656" stop-color="#F19CFF"/>
<stop offset="0.851562" stop-color="#F097FF"/>
<stop offset="0.855469" stop-color="#F093FF"/>
<stop offset="0.859375" stop-color="#EF8FFF"/>
<stop offset="0.863281" stop-color="#EF8AFF"/>
<stop offset="0.867188" stop-color="#EE86FF"/>
<stop offset="0.871094" stop-color="#ED81FF"/>
<stop offset="0.875" stop-color="#ED7DFF"/>
<stop offset="0.878906" stop-color="#EC78FF"/>
<stop offset="0.882812" stop-color="#EB74FF"/>
<stop offset="0.886719" stop-color="#EB70FF"/>
<stop offset="0.890625" stop-color="#EA6BFF"/>
<stop offset="0.894531" stop-color="#EA67FF"/>
<stop offset="0.898438" stop-color="#E962FF"/>
<stop offset="0.902344" stop-color="#E85EFF"/>
<stop offset="0.90625" stop-color="#E85AFF"/>
<stop offset="0.910156" stop-color="#E755FF"/>
<stop offset="0.914063" stop-color="#E751FF"/>
<stop offset="0.917969" stop-color="#E64CFF"/>
<stop offset="0.921875" stop-color="#E548FF"/>
<stop offset="0.925781" stop-color="#E544FF"/>
<stop offset="0.929688" stop-color="#E43FFF"/>
<stop offset="0.933594" stop-color="#E33BFF"/>
<stop offset="0.9375" stop-color="#E336FF"/>
<stop offset="0.941406" stop-color="#E232FF"/>
<stop offset="0.945313" stop-color="#E22EFF"/>
<stop offset="0.949219" stop-color="#E129FF"/>
<stop offset="0.953125" stop-color="#E025FF"/>
<stop offset="0.957031" stop-color="#E020FF"/>
<stop offset="0.960938" stop-color="#DF1CFF"/>
<stop offset="0.964844" stop-color="#DF18FF"/>
<stop offset="0.96875" stop-color="#DE15FF"/>
<stop offset="1" stop-color="#DE15FF"/>
</linearGradient>
</defs>
</svg>
