<?xml version="1.0" encoding="UTF-8" standalone="no"?>
<svg
   version="1.1"
   x="0px"
   y="0px"
   viewBox="0 0 100 125"
   enable-background="new 0 0 100 100"
   xml:space="preserve"
   id="svg16"
   sodipodi:docname="nail-polish-icon.svg"
   inkscape:version="1.2.1 (9c6d41e, 2022-07-14)"
   xmlns:inkscape="http://www.inkscape.org/namespaces/inkscape"
   xmlns:sodipodi="http://sodipodi.sourceforge.net/DTD/sodipodi-0.dtd"
   xmlns="http://www.w3.org/2000/svg"
   xmlns:svg="http://www.w3.org/2000/svg"><defs
     id="defs20" /><sodipodi:namedview
     id="namedview18"
     pagecolor="#ffffff"
     bordercolor="#666666"
     borderopacity="1.0"
     inkscape:showpageshadow="2"
     inkscape:pageopacity="0.0"
     inkscape:pagecheckerboard="0"
     inkscape:deskcolor="#d1d1d1"
     showgrid="false"
     inkscape:zoom="1.888"
     inkscape:cx="-29.131356"
     inkscape:cy="73.622881"
     inkscape:window-width="1440"
     inkscape:window-height="768"
     inkscape:window-x="0"
     inkscape:window-y="25"
     inkscape:window-maximized="0"
     inkscape:current-layer="svg16" /><path
     d="M43.102,50H35V40H17v10H8.898C6.749,50,5,51.749,5,53.898v37.203C5,93.251,6.749,95,8.898,95h34.203  C45.251,95,47,93.251,47,91.102V53.898C47,51.749,45.251,50,43.102,50z M19,46.489l14-3.439v1.97l-14,3.439V46.489z M33,42.02  l-14,3.439v-1.97L25.06,42H33V42.02z M20.868,42L19,42.459V42H20.868z M19,49.489l14-3.439V50H19V49.489z M45,91.102  C45,92.148,44.148,93,43.102,93H8.898C7.852,93,7,92.148,7,91.102V53.898C7,52.852,7.852,52,8.898,52H17h18h8.102  C44.148,52,45,52.852,45,53.898V91.102z"
     id="path2" /><rect
     x="22.986"
     y="49.104"
     transform="matrix(0.9711 -0.2385 0.2385 0.9711 -11.0049 8.2651)"
     width="11.325"
     height="1"
     id="rect4" /><path
     d="M63.905,28.452l-7.441,7.441L37.019,16.448l-7.69-12.109l-7.248,7.248l12.109,7.69l19.445,19.445l-7.144,7.144  l35.526,30.941l12.828-12.827L63.905,28.452z M29.154,5.928l6.591,10.379l-1.695,1.695l-10.379-6.591L29.154,5.928z M81.925,74.072  L49.422,45.765l14.382-14.383l28.309,32.504L81.925,74.072z"
     id="path6" /><path
     d="M26,16c-2,8-5.019,10.238-5.019,13.01c0,2.772,2.247,5.019,5.019,5.019s5.019-2.247,5.019-5.019C31.019,26.238,28,22,26,16z   M26,32c-6,0-4-7-1-8C23,28,25,31,26,32z"
     id="path8"
     style="fill:#e65ffb;fill-opacity:1" /><path
     d="M28,62c-4,4-9,6-19.93,3c0,4,0,24.176,0,24.176c0,1.435,1.163,2.599,2.599,2.599h30.663c1.435,0,2.599-1.163,2.599-2.599V61  C43.93,61,34,56,28,62z M14,89c-1.657,0-3-1.343-3-3s1.343-3,3-3s3,1.343,3,3S15.657,89,14,89z M14,77c-1.657,0-3-1.343-3-3  s1.343-3,3-3s3,1.343,3,3S15.657,77,14,77z M22.5,85c-2.485,0-4.5-2.015-4.5-4.5s2.015-4.5,4.5-4.5s4.5,2.015,4.5,4.5  S24.985,85,22.5,85z"
     id="path10"
     style="fill:#e65ffb;fill-opacity:1" /></svg>
