<?xml version="1.0" encoding="UTF-8" standalone="no"?>
<svg
   data-name="Layer 1"
   viewBox="0 0 100 125"
   x="0px"
   y="0px"
   version="1.1"
   id="svg28"
   sodipodi:docname="noun-fashion-5243554.svg"
   inkscape:version="1.2.1 (9c6d41e, 2022-07-14)"
   xmlns:inkscape="http://www.inkscape.org/namespaces/inkscape"
   xmlns:sodipodi="http://sodipodi.sourceforge.net/DTD/sodipodi-0.dtd"
   xmlns="http://www.w3.org/2000/svg"
   xmlns:svg="http://www.w3.org/2000/svg">
  <defs
     id="defs32" />
  <sodipodi:namedview
     id="namedview30"
     pagecolor="#ffffff"
     bordercolor="#666666"
     borderopacity="1.0"
     inkscape:showpageshadow="2"
     inkscape:pageopacity="0.0"
     inkscape:pagecheckerboard="0"
     inkscape:deskcolor="#d1d1d1"
     showgrid="false"
     inkscape:zoom="1.888"
     inkscape:cx="29.925847"
     inkscape:cy="62.5"
     inkscape:window-width="1309"
     inkscape:window-height="456"
     inkscape:window-x="0"
     inkscape:window-y="25"
     inkscape:window-maximized="0"
     inkscape:current-layer="svg28" />
  <g
     id="g14">
    <path
       d="M93.53,63.33c0-.58,0-1.2,0-1.85,0-5.25,0-12.44-5-14.06h0c-.03-.43-.06-.88-.09-1.36-.38-5.54-3.97-14.54-5.55-17.79-.16-.33-.49-.54-.86-.54h0c-.37,0-.7,.21-.86,.54-1.31,2.68-4.82,12.57-5.42,17.49-.07,.55-.12,1.1-.17,1.63-2.56,1.25-3.77,3.9-4.36,6.91,0-1.3-.01-2.48-.03-3.48,0-.58,0-1.2,0-1.85,0-5.25,0-12.44-5-14.06h0c-.03-.43-.06-.88-.09-1.36-.38-5.54-3.98-14.54-5.55-17.79-.16-.33-.49-.54-.86-.54h0c-.37,0-.7,.21-.86,.54-1.31,2.68-4.82,12.57-5.42,17.49-.07,.55-.12,1.1-.17,1.63-4.8,2.34-4.89,9.64-4.95,14.97,0,.33,0,.65-.01,.97,0,.64-.02,1.37-.03,2.14-.55-3.05-1.78-5.68-4.56-6.58h0c-.03-.43-.06-.88-.09-1.36-.38-5.54-3.97-14.54-5.55-17.79-.16-.33-.49-.54-.86-.54h0c-.37,0-.7,.21-.86,.54-1.31,2.68-4.82,12.57-5.42,17.49-.07,.55-.12,1.1-.17,1.63-4.8,2.34-4.89,9.64-4.95,14.97,0,.33,0,.65-.01,.97-.03,2.06-.02,4.88,0,7.91-.58-2.15-1.66-3.91-3.73-4.58h0c-.02-.37-.05-.77-.08-1.19-.34-4.84-3.48-12.72-4.86-15.57-.14-.29-.43-.47-.75-.47h0c-.32,0-.61,.18-.76,.47-1.14,2.34-4.22,11-4.74,15.3-.06,.48-.11,.96-.14,1.43-4.2,2.05-4.28,8.43-4.33,13.1,0,.29,0,.57-.01,.85-.1,6.63-.03,13.82-.03,14.48h.61c-.03-6.01-.05-9.18,.03-14.47,0-.27,0-.56,.01-.85,.05-4.38,.12-10.33,3.67-12.39-.28,4.38,.21,8.1,.24,8.38,.21,5.87,3.37,6.75,5.25,6.75h.06c1.31,0,5.18-1.14,5.75-6.22,.36-3.17,.37-4.97,.12-8.93,3.73,1.44,3.73,7.33,3.73,11.65,0,.57,0,1.11,0,1.63,.1,6.64,.03,13.81,.03,14.47h.61c0-.36,.02-2.68,.02-5.79,4.21,.31,7.27,.84,11.6,.84,2.87,0,7.01-.44,9.97-.59,0,2.9-.01,4.88-.01,5.09h.69c0-.72,.07-21.81-.02-30.24,.1-4.82,.21-9.52,.26-12.48,0-.31,0-.64,.01-.97,.06-5.01,.14-11.81,4.2-14.17-.32,5.01,.23,9.25,.28,9.57,.24,6.71,3.85,7.71,6,7.71h.06c1.5,0,5.92-1.31,6.58-7.11,.41-3.63,.43-5.68,.14-10.21,4.27,1.65,4.26,8.37,4.26,13.31,0,.66,0,1.27,0,1.86,.04,2.89,.09,7.32,.13,11.75,0,.25,0,.51,0,.75-.11,7.58-.04,30.51-.04,31.27h.69c-.03-6.86-.06-25.21,.04-31.26,0-.31,0-.64,.01-.97,.06-5.01,.14-11.81,4.2-14.17-.32,5.01,.23,9.25,.28,9.57,.24,6.71,3.85,7.71,6,7.71h.06c1.5,0,5.92-1.31,6.58-7.11,.41-3.63,.43-5.68,.14-10.21,4.27,1.65,4.26,8.37,4.26,13.31,0,.66,0,1.27,0,1.86,.12,7.59,.04,30.5,.04,31.25h.69c0-.75,.08-23.66-.04-31.26ZM11.48,74.65v-.03c0-.05-.7-5.06-.05-10.38,.48-3.96,3.16-11.67,4.43-14.56,.19,4.12,.14,8.24-.19,12.35-.01,.16,.12,.31,.27,.35,.28,.08,.57,.16,.85,.24-.94,.73-1.95,1.33-3.03,1.82-.31,.14-.17,.57,.09,.66,.99,.36,2.03,.51,3.07,.58l-1.6,.55c-.28,.1-.38,.51-.09,.66,.42,.23,.85,.4,1.29,.55-.26,.12-.53,.25-.78,.39-.32,.17-.61,.44-.6,.83,0,.32,.24,.6,.5,.76,.26,.16,.73,.18,1.05,.32-.82,.67-.83,1.85-.8,2.91,.04,1.74,.08,3.49,.12,5.23-1.32,.04-2.53,.36-3.52,.95-.61-1.02-.95-2.42-1.01-4.18Zm7.3,5.24c-1.12,.77-2.25,.94-2.6,.94h-.04s-.01,0-.02,0c-1.41,0-2.52-.51-3.3-1.5,.96-.56,2.13-.86,3.42-.86h0c1.17,0,2.43,.33,3.24,.82-.22,.22-.46,.41-.72,.59Zm2.56-4.74c-.17,1.51-.65,2.74-1.42,3.7-.8-.51-2-.86-3.18-.94-.03-1.36-.06-2.72-.09-4.08-.02-1-.45-3.19,.75-3.68,.21-.09,.35-.31,.22-.53-.31-.53-.79-.52-1.32-.69-.18-.06-.42-.18-.25-.42,.07-.09,.44-.22,.54-.26,.39-.19,.78-.37,1.17-.56,.28-.13,.21-.6-.09-.66-.44-.09-.85-.23-1.26-.39,.85-.29,1.69-.58,2.54-.88,.38-.13,.33-.71-.1-.71-1.31-.02-2.61-.07-3.88-.38,1.03-.53,1.99-1.18,2.87-1.94,.21-.18,.09-.54-.16-.61-.42-.12-.83-.24-1.25-.36,.32-4.17,.37-8.36,.15-12.54,1.38,2.88,4.44,10.55,4.76,15.26,.37,5.27,.41,7.01,0,10.67Zm10.22-30.34c.59-4.85,4.06-14.62,5.35-17.27,.07-.14,.19-.15,.24-.15h0s.17,.01,.24,.15c1.56,3.22,5.11,12.1,5.49,17.54,.42,6.02,.47,8.01,0,12.19-.19,1.72-.74,3.14-1.63,4.22-1.04-.66-2.67-1.11-4.18-1.11h0c-1.62,0-3.1,.38-4.3,1.1-.69-1.16-1.08-2.77-1.15-4.78v-.04c-.01-.06-.8-5.78-.06-11.86Zm9.22,17.2c-.25,.25-.53,.47-.82,.68-1.28,.89-2.58,1.08-2.97,1.08h-.05s-.01,0-.02,0c-1.61,0-2.88-.58-3.77-1.71,1.09-.64,2.44-.98,3.91-.98h0c1.34,0,2.78,.37,3.71,.93Zm7.25,25.77c-3.46,.17-6.65,.61-10.14,.58-3.72-.04-7.74-.56-11.43-.83,0-.58,0-1.18,0-1.8,4.22,.31,7.27,.84,11.6,.84,2.88,0,7.01-.44,9.97-.59,0,.63,0,1.23,0,1.8Zm0-2.5c-3.46,.17-6.65,.61-10.14,.58-3.72-.04-7.74-.56-11.44-.83,0-1.77-.02-3.65-.05-5.49,0-.51,0-1.05,0-1.62,0-.84,0-1.75-.03-2.66,0-4.99,.02-9.89,.06-12.95,0-.31,0-.64,.01-.97,.06-5.01,.14-11.81,4.2-14.17-.32,5.01,.23,9.25,.28,9.57,.24,6.71,3.85,7.71,6,7.71h.06c1.5,0,5.92-1.31,6.58-7.11,.41-3.63,.43-5.68,.14-10.21,4.27,1.65,4.26,8.37,4.26,13.31,0,.65,0,1.27,0,1.86,.07,4.73,.07,15.41,.06,22.97Zm6.09-40.04v-.04c-.01-.06-.8-5.78-.06-11.86,.59-4.85,4.06-14.62,5.35-17.27,.07-.14,.19-.15,.24-.15h0s.17,.01,.24,.15c.41,.84,.95,2.07,1.54,3.53-.02,.01-.04,.02-.05,.04-1.24,1.36-2.62,2.59-3.8,4-.91,1.08-1.67,2.58-.37,3.7,.99,.85,3.39,.97,3.35,2.61-.02,.98-.82,1.7-1.5,2.29-.73,.63-1.47,1.25-2.2,1.88-.48,.41-.96,.88-.92,1.56,.04,.6,.51,1.11,1.03,1.36,.72,.35,1.53,.2,2.29,.07,.7-.13,1.7-.29,2.27,.28,.78,.78-.18,1.84-.83,2.29-.65,.45-1.42,.78-1.93,1.39-.84,1.01-.49,2.33,.9,2.45,.98,.08,1.99-.08,2.98-.07,.21,0,.51,0,.68,.14,.31,.24,.2,.65,0,.9-.29,.38-.8,.54-1.23,.73-1.67,.75-3.06,2.14-4,3.7-.02,.04-.03,.08-.04,.12-1.02,.16-1.96,.48-2.78,.97-.69-1.16-1.08-2.77-1.15-4.78Zm8.34,5.98c-1.28,.89-2.58,1.08-2.97,1.08h-.05s-.01,0-.02,0c-1.61,0-2.88-.58-3.77-1.71,1.09-.64,2.44-.98,3.91-.98h0c1.34,0,2.78,.37,3.71,.93-.25,.25-.53,.47-.82,.68Zm2.92-5.42c-.19,1.72-.74,3.14-1.63,4.22-1.04-.66-2.67-1.11-4.18-1.11h0c-.21,0-.41,.02-.61,.04,.89-1.35,2.11-2.47,3.58-3.13,.62-.28,1.25-.56,1.55-1.21,.25-.53,.18-1.18-.29-1.55-.52-.41-1.25-.33-1.86-.31-.45,.01-.89,.03-1.34,.04-.39,.01-1.03,.13-1.37-.12-.91-.65,.77-1.71,1.22-1.98,.66-.41,1.34-.82,1.75-1.51,.68-1.16,.2-2.47-1.11-2.82-.63-.17-1.27-.09-1.91,.02-.49,.09-1.02,.22-1.53,.12-.47-.09-1.08-.49-.97-1.05,.07-.38,.52-.67,.79-.9,.35-.3,.71-.61,1.07-.91,.71-.61,1.5-1.19,2.07-1.93,.84-1.08,1-2.62-.18-3.52-.64-.49-1.43-.66-2.13-1.02-.38-.19-.78-.45-.97-.84-.26-.56,.01-1.14,.33-1.61,1.1-1.65,2.72-2.96,4.08-4.4,1.6,4.05,3.39,9.5,3.66,13.28,.42,6.02,.47,8.01,0,12.19Zm11.03,.05c.59-4.85,4.06-14.62,5.35-17.27,.07-.14,.19-.15,.24-.15h0s.17,.01,.24,.15c1.56,3.22,5.11,12.1,5.49,17.54,.17,2.4,.27,4.16,.31,5.67-.79,.01-1.51-.27-2.06-.87-.2-.22-.65-.06-.62,.26,.06,.7-.06,1.36-.33,1.97-.18-.9-.36-1.81-.54-2.71-.08-.42-.7-.3-.71,.1-.07,1.54-.16,3.08-.44,4.59-.17-3.72-.45-7.44-1.29-11.08-.09-.39-.76-.32-.71,.1,.34,2.76,.68,5.57,.33,8.34l-1.1-2.44c-.09-.2-.43-.24-.57-.07-.33,.4-.46,.84-.52,1.36-.06,.55,.03,1.23-.23,1.73-.35,.66-1.13,.46-1.72,.34-.47-.1-.94-.18-1.4-.12-.07-2.1-.05-4.72,.28-7.42Zm8.4,17.88c-1.28,.89-2.58,1.08-2.97,1.08h-.05s-.01,0-.02,0c-1.61,0-2.88-.58-3.77-1.71,1.09-.64,2.44-.98,3.91-.98h0c1.34,0,2.78,.37,3.71,.93-.25,.25-.53,.47-.82,.68Zm2.92-5.42c-.19,1.72-.74,3.14-1.63,4.22-1.04-.66-2.67-1.11-4.18-1.11h0c-1.62,0-3.09,.38-4.3,1.1-.69-1.16-1.08-2.77-1.15-4.78v-.04s-.21-1.49-.31-3.7c1.14-.21,2.43,.75,3.43-.2,.76-.73,.41-1.86,.65-2.76,.43,.95,.86,1.9,1.28,2.86,.13,.28,.6,.21,.66-.09,.12-.6,.2-1.2,.25-1.8,.13,1.81,.21,3.63,.28,5.45,.02,.42,.57,.48,.71,.1,.51-1.38,.76-2.81,.9-4.27,.06,.32,.13,.64,.19,.97,.07,.34,.5,.31,.66,.09,.53-.71,.83-1.53,.9-2.39,.58,.39,1.26,.57,1.97,.55,.02,1.94-.08,3.55-.33,5.8Z"
       id="path2" />
    <path
       d="M32.37,78.38l-.1,.69c2.08,.31,4.18,.46,6.28,.46,1.4,0,2.81-.07,4.21-.21l-.07-.7c-3.43,.34-6.9,.26-10.31-.25Z"
       id="path4" />
    <path
       d="M11.6,89.9l-.1,.69c2.08,.31,4.18,.46,6.28,.46,1.4,0,2.81-.07,4.21-.21l-.07-.7c-3.43,.34-6.9,.26-10.31-.25Z"
       id="path6" />
    <path
       d="M54.72,66.74l-.1,.69c2.08,.31,4.18,.46,6.28,.46,1.4,0,2.81-.07,4.21-.21l-.07-.7c-3.43,.34-6.9,.26-10.31-.25Z"
       id="path8" />
    <path
       d="M77.08,77.93l-.1,.69c2.08,.31,4.18,.46,6.28,.46,1.4,0,2.81-.07,4.21-.21l-.07-.7c-3.43,.34-6.9,.26-10.31-.25Z"
       id="path10" />
    <path
       d="M37.35,50.59c.09,.04,.19,.02,.27-.04,0,0,0,0,0,0,1.23-.65,2.73-1.55,2.97-3.06,.11-.68-.03-1.41-.56-1.89-.51-.46-1.28-.63-1.92-.38-.47,.18-.82,.56-1.02,1.01-.4-.41-.92-.71-1.49-.79-.85-.13-1.82,.26-1.85,1.24-.03,.89,.68,1.73,1.26,2.33,.66,.68,1.45,1.23,2.33,1.58Zm-2.66-4.29c.24-.19,.61-.18,.9-.13,.62,.13,1.12,.55,1.39,1.12,.15,.32,.7,.17,.68-.18-.04-.63,.4-1.25,1.06-1.27,.66-.02,1.17,.48,1.2,1.13,.07,1.41-1.37,2.27-2.48,2.87-.6-.26-1.16-.64-1.64-1.08-.48-.45-1.02-1.02-1.24-1.66-.09-.27-.13-.6,.12-.8Z"
       id="path12" />
  </g>
  <path
     d="M21.13,26.18h-.63c0,4.05-2.42,6.47-6.47,6.47v.63c4.05,0,6.47,2.42,6.47,6.47h.63c0-4.05,2.42-6.47,6.47-6.47v-.63c-4.05,0-6.47-2.42-6.47-6.47Zm-.31,11.15c-.63-2.21-2.16-3.75-4.37-4.37,2.21-.63,3.75-2.16,4.37-4.37,.63,2.21,2.16,3.75,4.37,4.37-2.21,.63-3.75,2.16-4.37,4.37Z"
     id="path16" />
  <path
     d="M44.68,15.9h-.39c0,2.54-1.52,4.06-4.06,4.06v.39c2.54,0,4.06,1.52,4.06,4.06h.39c0-2.54,1.52-4.06,4.06-4.06v-.39c-2.54,0-4.06-1.52-4.06-4.06Zm-.2,7c-.39-1.39-1.36-2.35-2.74-2.74,1.39-.39,2.35-1.36,2.74-2.74,.39,1.39,1.36,2.35,2.74,2.74-1.39,.39-2.35,1.36-2.74,2.74Z"
     id="path18" />
  <path
     d="M73.28,18.51h-.33c0,2.11-1.26,3.36-3.36,3.36v.33c2.11,0,3.36,1.26,3.36,3.36h.33c0-2.11,1.26-3.36,3.36-3.36v-.33c-2.11,0-3.36-1.26-3.36-3.36Zm-.16,5.8c-.33-1.15-1.12-1.95-2.27-2.27,1.15-.33,1.95-1.12,2.27-2.27,.33,1.15,1.12,1.95,2.27,2.27-1.15,.33-1.95,1.12-2.27,2.27Z"
     id="path20" />
  <path
     d="M58.79,3.95h-.33c0,2.11-1.26,3.36-3.36,3.36v.33c2.11,0,3.36,1.26,3.36,3.36h.33c0-2.11,1.26-3.36,3.36-3.36v-.33c-2.11,0-3.36-1.26-3.36-3.36Zm-.16,5.8c-.33-1.15-1.12-1.95-2.27-2.27,1.15-.33,1.95-1.12,2.27-2.27,.33,1.15,1.12,1.95,2.27,2.27-1.15,.33-1.95,1.12-2.27,2.27Z"
     id="path22" />
</svg>
